<mxfile host="app.diagrams.net" agent="Mozilla/5.0 (Windows NT 10.0; Win64; x64) AppleWebKit/537.36 (KHTML, like Gecko) Chrome/135.0.0.0 Safari/537.36" version="26.2.14" pages="3">
  <diagram name="Сторінка-1" id="FuzJ9An4q4CWNA4oszo8">
    <mxGraphModel dx="2253" dy="743" grid="1" gridSize="10" guides="1" tooltips="1" connect="1" arrows="1" fold="1" page="1" pageScale="1" pageWidth="827" pageHeight="1169" math="0" shadow="0">
      <root>
        <mxCell id="0" />
        <mxCell id="1" parent="0" />
        <mxCell id="tau-3lqzJscV-AML8d3u-42" value="Сайт музею" style="shape=umlLifeline;perimeter=lifelinePerimeter;whiteSpace=wrap;html=1;container=1;dropTarget=0;collapsible=0;recursiveResize=0;outlineConnect=0;portConstraint=eastwest;newEdgeStyle={&quot;curved&quot;:0,&quot;rounded&quot;:0};" parent="1" vertex="1">
          <mxGeometry x="250" y="40" width="100" height="1120" as="geometry" />
        </mxCell>
        <mxCell id="tau-3lqzJscV-AML8d3u-44" value="" style="shape=umlLifeline;perimeter=lifelinePerimeter;whiteSpace=wrap;html=1;container=1;dropTarget=0;collapsible=0;recursiveResize=0;outlineConnect=0;portConstraint=eastwest;newEdgeStyle={&quot;curved&quot;:0,&quot;rounded&quot;:0};participant=umlActor;size=60;" parent="1" vertex="1">
          <mxGeometry x="100" y="30" width="30" height="1130" as="geometry" />
        </mxCell>
        <mxCell id="tau-3lqzJscV-AML8d3u-47" style="edgeStyle=orthogonalEdgeStyle;rounded=0;orthogonalLoop=1;jettySize=auto;html=1;curved=0;" parent="1" source="tau-3lqzJscV-AML8d3u-44" target="tau-3lqzJscV-AML8d3u-42" edge="1">
          <mxGeometry relative="1" as="geometry">
            <mxPoint x="298" y="170" as="targetPoint" />
            <Array as="points">
              <mxPoint x="210" y="110" />
              <mxPoint x="210" y="110" />
            </Array>
          </mxGeometry>
        </mxCell>
        <mxCell id="tau-3lqzJscV-AML8d3u-48" value="Перехід до розділу &quot;Екскурсії&quot;" style="text;html=1;align=center;verticalAlign=middle;whiteSpace=wrap;rounded=0;fontSize=10;" parent="1" vertex="1">
          <mxGeometry x="120" y="90" width="170" height="20" as="geometry" />
        </mxCell>
        <mxCell id="tau-3lqzJscV-AML8d3u-50" value="" style="endArrow=classic;html=1;rounded=0;dashed=1;" parent="1" source="tau-3lqzJscV-AML8d3u-42" target="tau-3lqzJscV-AML8d3u-44" edge="1">
          <mxGeometry width="50" height="50" relative="1" as="geometry">
            <mxPoint x="170" y="190" as="sourcePoint" />
            <mxPoint x="220" y="140" as="targetPoint" />
            <Array as="points">
              <mxPoint x="200" y="210" />
            </Array>
          </mxGeometry>
        </mxCell>
        <mxCell id="tau-3lqzJscV-AML8d3u-51" value="Показ доступних екскурсій" style="text;html=1;align=center;verticalAlign=middle;whiteSpace=wrap;rounded=0;fontSize=10;" parent="1" vertex="1">
          <mxGeometry x="120" y="182.5" width="180" height="15" as="geometry" />
        </mxCell>
        <mxCell id="tau-3lqzJscV-AML8d3u-53" value="" style="endArrow=classic;html=1;rounded=0;" parent="1" edge="1">
          <mxGeometry width="50" height="50" relative="1" as="geometry">
            <mxPoint x="112.66333333333331" y="250" as="sourcePoint" />
            <mxPoint x="297.33" y="250" as="targetPoint" />
            <Array as="points">
              <mxPoint x="187.83" y="250" />
            </Array>
          </mxGeometry>
        </mxCell>
        <mxCell id="tau-3lqzJscV-AML8d3u-54" value="&amp;nbsp;Вибір екскурсії та натискання &quot;Замовити&quot;&amp;nbsp;" style="text;html=1;align=center;verticalAlign=middle;whiteSpace=wrap;rounded=0;" parent="1" vertex="1">
          <mxGeometry x="105" y="220" width="200" height="30" as="geometry" />
        </mxCell>
        <mxCell id="tau-3lqzJscV-AML8d3u-55" value="" style="endArrow=classic;html=1;rounded=0;dashed=1;" parent="1" edge="1">
          <mxGeometry width="50" height="50" relative="1" as="geometry">
            <mxPoint x="300" y="290" as="sourcePoint" />
            <mxPoint x="115.33333333333331" y="290" as="targetPoint" />
            <Array as="points">
              <mxPoint x="230.5" y="290" />
            </Array>
          </mxGeometry>
        </mxCell>
        <mxCell id="tau-3lqzJscV-AML8d3u-56" value="Відображення форми бронювання" style="text;html=1;align=center;verticalAlign=middle;whiteSpace=wrap;rounded=0;" parent="1" vertex="1">
          <mxGeometry x="115" y="260" width="180" height="30" as="geometry" />
        </mxCell>
        <mxCell id="tau-3lqzJscV-AML8d3u-57" value="" style="endArrow=classic;html=1;rounded=0;" parent="1" edge="1">
          <mxGeometry width="50" height="50" relative="1" as="geometry">
            <mxPoint x="112.66333333333331" y="330" as="sourcePoint" />
            <mxPoint x="297.33" y="330" as="targetPoint" />
            <Array as="points">
              <mxPoint x="187.83" y="330" />
            </Array>
          </mxGeometry>
        </mxCell>
        <mxCell id="tau-3lqzJscV-AML8d3u-58" value="Заповнення персональних даних та вибір дати/часу" style="text;html=1;align=center;verticalAlign=middle;whiteSpace=wrap;rounded=0;" parent="1" vertex="1">
          <mxGeometry x="110" y="300" width="190" height="30" as="geometry" />
        </mxCell>
        <mxCell id="tau-3lqzJscV-AML8d3u-59" value="" style="endArrow=classic;html=1;rounded=0;" parent="1" edge="1">
          <mxGeometry width="50" height="50" relative="1" as="geometry">
            <mxPoint x="112.66333333333331" y="370" as="sourcePoint" />
            <mxPoint x="297.33" y="370" as="targetPoint" />
            <Array as="points">
              <mxPoint x="187.83" y="370" />
            </Array>
          </mxGeometry>
        </mxCell>
        <mxCell id="tau-3lqzJscV-AML8d3u-60" value="Натискання &quot;Підтвердити замовлення&quot;" style="text;html=1;align=center;verticalAlign=middle;whiteSpace=wrap;rounded=0;" parent="1" vertex="1">
          <mxGeometry x="110" y="340" width="190" height="30" as="geometry" />
        </mxCell>
        <mxCell id="tau-3lqzJscV-AML8d3u-61" value="Система" style="shape=umlLifeline;perimeter=lifelinePerimeter;whiteSpace=wrap;html=1;container=1;dropTarget=0;collapsible=0;recursiveResize=0;outlineConnect=0;portConstraint=eastwest;newEdgeStyle={&quot;curved&quot;:0,&quot;rounded&quot;:0};" parent="1" vertex="1">
          <mxGeometry x="490" y="40" width="100" height="1120" as="geometry" />
        </mxCell>
        <mxCell id="tau-3lqzJscV-AML8d3u-62" value="" style="endArrow=classic;html=1;rounded=0;" parent="1" edge="1">
          <mxGeometry width="50" height="50" relative="1" as="geometry">
            <mxPoint x="300.0033333333333" y="140" as="sourcePoint" />
            <mxPoint x="539.67" y="140" as="targetPoint" />
          </mxGeometry>
        </mxCell>
        <mxCell id="tau-3lqzJscV-AML8d3u-63" value="Запит списку доступних екскурсій" style="text;html=1;align=center;verticalAlign=middle;whiteSpace=wrap;rounded=0;" parent="1" vertex="1">
          <mxGeometry x="300" y="100" width="240" height="30" as="geometry" />
        </mxCell>
        <mxCell id="tau-3lqzJscV-AML8d3u-64" value="" style="endArrow=classic;html=1;rounded=0;dashed=1;" parent="1" edge="1">
          <mxGeometry width="50" height="50" relative="1" as="geometry">
            <mxPoint x="535.06" y="197.5" as="sourcePoint" />
            <mxPoint x="300.0044444444446" y="197.82999999999998" as="targetPoint" />
            <Array as="points">
              <mxPoint x="435.06" y="197.5" />
              <mxPoint x="420.06" y="197.82999999999998" />
            </Array>
          </mxGeometry>
        </mxCell>
        <mxCell id="tau-3lqzJscV-AML8d3u-65" value="Відображення списку екскурсій" style="text;html=1;align=center;verticalAlign=middle;whiteSpace=wrap;rounded=0;" parent="1" vertex="1">
          <mxGeometry x="300" y="160" width="240" height="30" as="geometry" />
        </mxCell>
        <mxCell id="tau-3lqzJscV-AML8d3u-66" value="" style="endArrow=classic;html=1;rounded=0;" parent="1" edge="1">
          <mxGeometry width="50" height="50" relative="1" as="geometry">
            <mxPoint x="300.0033333333333" y="410" as="sourcePoint" />
            <mxPoint x="539.67" y="410" as="targetPoint" />
          </mxGeometry>
        </mxCell>
        <mxCell id="tau-3lqzJscV-AML8d3u-67" value="Передача даних форми" style="text;html=1;align=center;verticalAlign=middle;whiteSpace=wrap;rounded=0;" parent="1" vertex="1">
          <mxGeometry x="310" y="370" width="220" height="30" as="geometry" />
        </mxCell>
        <mxCell id="tau-3lqzJscV-AML8d3u-68" value=":База Даних" style="shape=umlLifeline;perimeter=lifelinePerimeter;whiteSpace=wrap;html=1;container=1;dropTarget=0;collapsible=0;recursiveResize=0;outlineConnect=0;portConstraint=eastwest;newEdgeStyle={&quot;curved&quot;:0,&quot;rounded&quot;:0};" parent="1" vertex="1">
          <mxGeometry x="720" y="40" width="100" height="1120" as="geometry" />
        </mxCell>
        <mxCell id="tau-3lqzJscV-AML8d3u-69" value="Система ссповіщень" style="shape=umlLifeline;perimeter=lifelinePerimeter;whiteSpace=wrap;html=1;container=1;dropTarget=0;collapsible=0;recursiveResize=0;outlineConnect=0;portConstraint=eastwest;newEdgeStyle={&quot;curved&quot;:0,&quot;rounded&quot;:0};" parent="1" vertex="1">
          <mxGeometry x="950" y="40" width="100" height="1120" as="geometry" />
        </mxCell>
        <mxCell id="tau-3lqzJscV-AML8d3u-70" value="" style="endArrow=classic;html=1;rounded=0;" parent="1" edge="1">
          <mxGeometry width="50" height="50" relative="1" as="geometry">
            <mxPoint x="540.0033333333333" y="180" as="sourcePoint" />
            <mxPoint x="769.4999999999998" y="180.00000000000014" as="targetPoint" />
          </mxGeometry>
        </mxCell>
        <mxCell id="tau-3lqzJscV-AML8d3u-71" value="" style="endArrow=classic;html=1;rounded=0;dashed=1;" parent="1" edge="1">
          <mxGeometry width="50" height="50" relative="1" as="geometry">
            <mxPoint x="769.5" y="234.6" as="sourcePoint" />
            <mxPoint x="540.0044444444445" y="234.92999999999998" as="targetPoint" />
            <Array as="points">
              <mxPoint x="675.06" y="234.6" />
              <mxPoint x="660.06" y="234.92999999999998" />
            </Array>
          </mxGeometry>
        </mxCell>
        <mxCell id="tau-3lqzJscV-AML8d3u-72" value="Запит даних про екскурсії" style="text;html=1;align=center;verticalAlign=middle;whiteSpace=wrap;rounded=0;" parent="1" vertex="1">
          <mxGeometry x="540" y="140" width="230" height="30" as="geometry" />
        </mxCell>
        <mxCell id="tau-3lqzJscV-AML8d3u-73" value="Повернення списку екскурсії" style="text;html=1;align=center;verticalAlign=middle;whiteSpace=wrap;rounded=0;" parent="1" vertex="1">
          <mxGeometry x="540" y="198.5" width="230" height="30" as="geometry" />
        </mxCell>
        <mxCell id="tau-3lqzJscV-AML8d3u-79" value="Відвідувач" style="text;html=1;align=center;verticalAlign=middle;whiteSpace=wrap;rounded=0;" parent="1" vertex="1">
          <mxGeometry x="85" width="60" height="30" as="geometry" />
        </mxCell>
        <mxCell id="tau-3lqzJscV-AML8d3u-80" value="" style="endArrow=classic;html=1;rounded=0;" parent="1" target="tau-3lqzJscV-AML8d3u-68" edge="1">
          <mxGeometry width="50" height="50" relative="1" as="geometry">
            <mxPoint x="540.0033333333333" y="460" as="sourcePoint" />
            <mxPoint x="779.67" y="460" as="targetPoint" />
          </mxGeometry>
        </mxCell>
        <mxCell id="tau-3lqzJscV-AML8d3u-81" value="Перевірка наявності місць" style="text;html=1;align=center;verticalAlign=middle;whiteSpace=wrap;rounded=0;" parent="1" vertex="1">
          <mxGeometry x="545" y="430" width="220" height="30" as="geometry" />
        </mxCell>
        <mxCell id="tau-3lqzJscV-AML8d3u-82" value="" style="endArrow=classic;html=1;rounded=0;dashed=1;" parent="1" edge="1">
          <mxGeometry width="50" height="50" relative="1" as="geometry">
            <mxPoint x="769.75" y="540" as="sourcePoint" />
            <mxPoint x="540.2544444444445" y="540.3299999999999" as="targetPoint" />
            <Array as="points">
              <mxPoint x="675.31" y="540" />
              <mxPoint x="660.31" y="540.3299999999999" />
            </Array>
          </mxGeometry>
        </mxCell>
        <mxCell id="tau-3lqzJscV-AML8d3u-83" value="Підтвердження наявсності міцсць" style="text;html=1;align=center;verticalAlign=middle;whiteSpace=wrap;rounded=0;" parent="1" vertex="1">
          <mxGeometry x="545" y="500" width="220" height="30" as="geometry" />
        </mxCell>
        <mxCell id="tau-3lqzJscV-AML8d3u-84" value="" style="endArrow=classic;html=1;rounded=0;" parent="1" edge="1">
          <mxGeometry width="50" height="50" relative="1" as="geometry">
            <mxPoint x="540.0033333333333" y="585" as="sourcePoint" />
            <mxPoint x="769.4999999999998" y="585.0000000000001" as="targetPoint" />
          </mxGeometry>
        </mxCell>
        <mxCell id="tau-3lqzJscV-AML8d3u-86" value="Збереження бронювання" style="text;html=1;align=center;verticalAlign=middle;whiteSpace=wrap;rounded=0;" parent="1" vertex="1">
          <mxGeometry x="545" y="555" width="220" height="30" as="geometry" />
        </mxCell>
        <mxCell id="tau-3lqzJscV-AML8d3u-87" value="" style="endArrow=classic;html=1;rounded=0;dashed=1;" parent="1" edge="1">
          <mxGeometry width="50" height="50" relative="1" as="geometry">
            <mxPoint x="770" y="640" as="sourcePoint" />
            <mxPoint x="540.5044444444445" y="640.3299999999999" as="targetPoint" />
            <Array as="points">
              <mxPoint x="675.56" y="640" />
              <mxPoint x="660.56" y="640.3299999999999" />
            </Array>
          </mxGeometry>
        </mxCell>
        <mxCell id="tau-3lqzJscV-AML8d3u-89" value="Підтвеження збереження" style="text;html=1;align=center;verticalAlign=middle;whiteSpace=wrap;rounded=0;" parent="1" vertex="1">
          <mxGeometry x="550" y="600" width="220" height="30" as="geometry" />
        </mxCell>
        <mxCell id="tau-3lqzJscV-AML8d3u-90" value="" style="endArrow=classic;html=1;rounded=0;" parent="1" target="tau-3lqzJscV-AML8d3u-69" edge="1">
          <mxGeometry width="50" height="50" relative="1" as="geometry">
            <mxPoint x="540.1633333333333" y="680" as="sourcePoint" />
            <mxPoint x="779.8299999999999" y="680" as="targetPoint" />
          </mxGeometry>
        </mxCell>
        <mxCell id="tau-3lqzJscV-AML8d3u-91" value="Запит на надсилання підтверження" style="text;html=1;align=center;verticalAlign=middle;whiteSpace=wrap;rounded=0;" parent="1" vertex="1">
          <mxGeometry x="570" y="650" width="420" height="30" as="geometry" />
        </mxCell>
        <mxCell id="tau-3lqzJscV-AML8d3u-92" value="" style="endArrow=classic;html=1;rounded=0;dashed=1;" parent="1" target="tau-3lqzJscV-AML8d3u-44" edge="1">
          <mxGeometry width="50" height="50" relative="1" as="geometry">
            <mxPoint x="999.5" y="720" as="sourcePoint" />
            <mxPoint x="770.0044444444445" y="720.3299999999999" as="targetPoint" />
            <Array as="points">
              <mxPoint x="905.06" y="720" />
              <mxPoint x="890.06" y="720.3299999999999" />
            </Array>
          </mxGeometry>
        </mxCell>
        <mxCell id="tau-3lqzJscV-AML8d3u-93" value="Надсилання на email з підтверженням" style="text;html=1;align=center;verticalAlign=middle;whiteSpace=wrap;rounded=0;" parent="1" vertex="1">
          <mxGeometry x="140" y="690" width="850" height="30" as="geometry" />
        </mxCell>
        <mxCell id="tau-3lqzJscV-AML8d3u-94" value="" style="endArrow=classic;html=1;rounded=0;dashed=1;" parent="1" target="tau-3lqzJscV-AML8d3u-42" edge="1">
          <mxGeometry width="50" height="50" relative="1" as="geometry">
            <mxPoint x="545" y="760" as="sourcePoint" />
            <mxPoint x="315.5044444444445" y="760.3299999999999" as="targetPoint" />
            <Array as="points">
              <mxPoint x="450.55999999999995" y="760" />
              <mxPoint x="435.55999999999995" y="760.3299999999999" />
            </Array>
          </mxGeometry>
        </mxCell>
        <mxCell id="tau-3lqzJscV-AML8d3u-95" value="" style="endArrow=classic;html=1;rounded=0;dashed=1;" parent="1" target="tau-3lqzJscV-AML8d3u-44" edge="1">
          <mxGeometry width="50" height="50" relative="1" as="geometry">
            <mxPoint x="302.5" y="790" as="sourcePoint" />
            <mxPoint x="120" y="790" as="targetPoint" />
            <Array as="points">
              <mxPoint x="252.55999999999995" y="790" />
              <mxPoint x="237.55999999999995" y="790.3299999999999" />
            </Array>
          </mxGeometry>
        </mxCell>
        <mxCell id="tau-3lqzJscV-AML8d3u-96" value="Повідомлення про успішне бронювання" style="text;html=1;align=center;verticalAlign=middle;whiteSpace=wrap;rounded=0;" parent="1" vertex="1">
          <mxGeometry x="310" y="730" width="230" height="30" as="geometry" />
        </mxCell>
        <mxCell id="tau-3lqzJscV-AML8d3u-97" value="Показ повідомлення про успіх" style="text;html=1;align=center;verticalAlign=middle;whiteSpace=wrap;rounded=0;" parent="1" vertex="1">
          <mxGeometry x="115" y="760" width="185" height="30" as="geometry" />
        </mxCell>
        <mxCell id="tau-3lqzJscV-AML8d3u-98" value="" style="endArrow=classic;html=1;rounded=0;dashed=1;" parent="1" edge="1">
          <mxGeometry width="50" height="50" relative="1" as="geometry">
            <mxPoint x="769.75" y="850" as="sourcePoint" />
            <mxPoint x="540.2544444444445" y="850.3299999999999" as="targetPoint" />
            <Array as="points">
              <mxPoint x="675.31" y="850" />
              <mxPoint x="660.31" y="850.3299999999999" />
            </Array>
          </mxGeometry>
        </mxCell>
        <mxCell id="tau-3lqzJscV-AML8d3u-99" value="Повідомлення про відсутність місць" style="text;html=1;align=center;verticalAlign=middle;whiteSpace=wrap;rounded=0;" parent="1" vertex="1">
          <mxGeometry x="540" y="810" width="230" height="30" as="geometry" />
        </mxCell>
        <mxCell id="tau-3lqzJscV-AML8d3u-100" value="" style="endArrow=classic;html=1;rounded=0;dashed=1;" parent="1" target="tau-3lqzJscV-AML8d3u-42" edge="1">
          <mxGeometry width="50" height="50" relative="1" as="geometry">
            <mxPoint x="539.75" y="880" as="sourcePoint" />
            <mxPoint x="310.2544444444445" y="880.3299999999999" as="targetPoint" />
            <Array as="points">
              <mxPoint x="445.30999999999995" y="880" />
              <mxPoint x="430.30999999999995" y="880.3299999999999" />
            </Array>
          </mxGeometry>
        </mxCell>
        <mxCell id="tau-3lqzJscV-AML8d3u-101" value="Повідомлення про відсутність місць" style="text;html=1;align=center;verticalAlign=middle;whiteSpace=wrap;rounded=0;" parent="1" vertex="1">
          <mxGeometry x="305" y="840" width="230" height="30" as="geometry" />
        </mxCell>
        <mxCell id="tau-3lqzJscV-AML8d3u-102" value="" style="endArrow=classic;html=1;rounded=0;dashed=1;" parent="1" target="tau-3lqzJscV-AML8d3u-44" edge="1">
          <mxGeometry width="50" height="50" relative="1" as="geometry">
            <mxPoint x="300" y="910" as="sourcePoint" />
            <mxPoint x="60.25" y="910" as="targetPoint" />
            <Array as="points">
              <mxPoint x="205.55999999999995" y="910" />
              <mxPoint x="190.55999999999995" y="910.3299999999999" />
            </Array>
          </mxGeometry>
        </mxCell>
        <mxCell id="tau-3lqzJscV-AML8d3u-103" value="Пропозиція обрати іншу дату" style="text;html=1;align=center;verticalAlign=middle;whiteSpace=wrap;rounded=0;" parent="1" vertex="1">
          <mxGeometry x="120" y="870" width="180" height="30" as="geometry" />
        </mxCell>
        <mxCell id="tau-3lqzJscV-AML8d3u-104" value="" style="endArrow=classic;html=1;rounded=0;dashed=1;" parent="1" edge="1">
          <mxGeometry width="50" height="50" relative="1" as="geometry">
            <mxPoint x="540" y="980" as="sourcePoint" />
            <mxPoint x="300.25" y="980" as="targetPoint" />
            <Array as="points">
              <mxPoint x="445.55999999999995" y="980" />
              <mxPoint x="430.55999999999995" y="980.3299999999999" />
            </Array>
          </mxGeometry>
        </mxCell>
        <mxCell id="tau-3lqzJscV-AML8d3u-105" value="Повідомлення про помилку" style="text;html=1;align=center;verticalAlign=middle;whiteSpace=wrap;rounded=0;" parent="1" vertex="1">
          <mxGeometry x="305" y="940" width="230" height="30" as="geometry" />
        </mxCell>
        <mxCell id="tau-3lqzJscV-AML8d3u-106" value="" style="endArrow=classic;html=1;rounded=0;dashed=1;" parent="1" edge="1">
          <mxGeometry width="50" height="50" relative="1" as="geometry">
            <mxPoint x="539.75" y="1080" as="sourcePoint" />
            <mxPoint x="300" y="1080" as="targetPoint" />
            <Array as="points">
              <mxPoint x="445.30999999999995" y="1080" />
              <mxPoint x="430.30999999999995" y="1080.33" />
            </Array>
          </mxGeometry>
        </mxCell>
        <mxCell id="tau-3lqzJscV-AML8d3u-107" value="Повідомлення про внутрішню помилку" style="text;html=1;align=center;verticalAlign=middle;whiteSpace=wrap;rounded=0;" parent="1" vertex="1">
          <mxGeometry x="305" y="1040" width="230" height="30" as="geometry" />
        </mxCell>
        <mxCell id="tau-3lqzJscV-AML8d3u-108" value="" style="endArrow=classic;html=1;rounded=0;dashed=1;" parent="1" edge="1">
          <mxGeometry width="50" height="50" relative="1" as="geometry">
            <mxPoint x="297.5" y="1010" as="sourcePoint" />
            <mxPoint x="112.5" y="1010" as="targetPoint" />
            <Array as="points">
              <mxPoint x="203.05999999999995" y="1010" />
              <mxPoint x="188.05999999999995" y="1010.3299999999999" />
            </Array>
          </mxGeometry>
        </mxCell>
        <mxCell id="tau-3lqzJscV-AML8d3u-109" value="" style="endArrow=classic;html=1;rounded=0;dashed=1;" parent="1" edge="1">
          <mxGeometry width="50" height="50" relative="1" as="geometry">
            <mxPoint x="300" y="1100" as="sourcePoint" />
            <mxPoint x="115" y="1100" as="targetPoint" />
            <Array as="points">
              <mxPoint x="205.55999999999995" y="1100" />
              <mxPoint x="190.55999999999995" y="1100.33" />
            </Array>
          </mxGeometry>
        </mxCell>
        <mxCell id="tau-3lqzJscV-AML8d3u-110" value="Відображення полів з помилками" style="text;html=1;align=center;verticalAlign=middle;whiteSpace=wrap;rounded=0;" parent="1" vertex="1">
          <mxGeometry x="120" y="970" width="170" height="30" as="geometry" />
        </mxCell>
        <mxCell id="tau-3lqzJscV-AML8d3u-111" value="Показ повідомлення про помилку" style="text;html=1;align=center;verticalAlign=middle;whiteSpace=wrap;rounded=0;" parent="1" vertex="1">
          <mxGeometry x="120" y="1060" width="170" height="30" as="geometry" />
        </mxCell>
        <mxCell id="tau-3lqzJscV-AML8d3u-112" value="Успішна&amp;nbsp;&lt;br&gt;валідація" style="shape=umlFrame;whiteSpace=wrap;html=1;pointerEvents=0;width=60;height=45;" parent="1" vertex="1">
          <mxGeometry x="-50" y="415" width="1080" height="605" as="geometry" />
        </mxCell>
        <mxCell id="tau-3lqzJscV-AML8d3u-113" value="Технічна&lt;br&gt;помилка&amp;nbsp;&lt;br&gt;системи" style="shape=umlFrame;whiteSpace=wrap;html=1;pointerEvents=0;width=60;height=60;" parent="1" vertex="1">
          <mxGeometry x="50" y="1030" width="500" height="140" as="geometry" />
        </mxCell>
        <mxCell id="tau-3lqzJscV-AML8d3u-114" value="Місця доступні" style="shape=umlFrame;whiteSpace=wrap;html=1;pointerEvents=0;width=60;height=45;" parent="1" vertex="1">
          <mxGeometry x="30" y="427" width="990" height="363" as="geometry" />
        </mxCell>
        <mxCell id="tau-3lqzJscV-AML8d3u-115" value="Місця відсутні" style="shape=umlFrame;whiteSpace=wrap;html=1;pointerEvents=0;width=60;height=45;" parent="1" vertex="1">
          <mxGeometry x="30" y="790" width="990" height="130" as="geometry" />
        </mxCell>
        <mxCell id="tau-3lqzJscV-AML8d3u-116" value="Помилка&lt;br&gt;валідації" style="shape=umlFrame;whiteSpace=wrap;html=1;pointerEvents=0;width=60;height=45;" parent="1" vertex="1">
          <mxGeometry x="30" y="920" width="990" height="100" as="geometry" />
        </mxCell>
      </root>
    </mxGraphModel>
  </diagram>
  <diagram id="-CqmWd-WvemNE8Y21-Z6" name="Сторінка-2">
    <mxGraphModel dx="713" dy="675" grid="1" gridSize="10" guides="1" tooltips="1" connect="1" arrows="1" fold="1" page="1" pageScale="1" pageWidth="827" pageHeight="1169" math="0" shadow="0">
      <root>
        <mxCell id="0" />
        <mxCell id="1" parent="0" />
        <mxCell id="_W2DahZF67eOqPuJs2A8-2" value="" style="shape=umlLifeline;perimeter=lifelinePerimeter;whiteSpace=wrap;html=1;container=1;dropTarget=0;collapsible=0;recursiveResize=0;outlineConnect=0;portConstraint=eastwest;newEdgeStyle={&quot;curved&quot;:0,&quot;rounded&quot;:0};participant=umlActor;" vertex="1" parent="1">
          <mxGeometry x="70" y="40" width="20" height="1920" as="geometry" />
        </mxCell>
        <mxCell id="_W2DahZF67eOqPuJs2A8-3" value="Сайт музею" style="shape=umlLifeline;perimeter=lifelinePerimeter;whiteSpace=wrap;html=1;container=1;dropTarget=0;collapsible=0;recursiveResize=0;outlineConnect=0;portConstraint=eastwest;newEdgeStyle={&quot;curved&quot;:0,&quot;rounded&quot;:0};" vertex="1" parent="1">
          <mxGeometry x="230" y="40" width="100" height="1920" as="geometry" />
        </mxCell>
        <mxCell id="_W2DahZF67eOqPuJs2A8-4" value="Система" style="shape=umlLifeline;perimeter=lifelinePerimeter;whiteSpace=wrap;html=1;container=1;dropTarget=0;collapsible=0;recursiveResize=0;outlineConnect=0;portConstraint=eastwest;newEdgeStyle={&quot;curved&quot;:0,&quot;rounded&quot;:0};" vertex="1" parent="1">
          <mxGeometry x="440" y="40" width="100" height="1920" as="geometry" />
        </mxCell>
        <mxCell id="_W2DahZF67eOqPuJs2A8-5" value="База Даних" style="shape=umlLifeline;perimeter=lifelinePerimeter;whiteSpace=wrap;html=1;container=1;dropTarget=0;collapsible=0;recursiveResize=0;outlineConnect=0;portConstraint=eastwest;newEdgeStyle={&quot;curved&quot;:0,&quot;rounded&quot;:0};" vertex="1" parent="1">
          <mxGeometry x="640" y="40" width="100" height="1920" as="geometry" />
        </mxCell>
        <mxCell id="_W2DahZF67eOqPuJs2A8-6" value="Платіжна система" style="shape=umlLifeline;perimeter=lifelinePerimeter;whiteSpace=wrap;html=1;container=1;dropTarget=0;collapsible=0;recursiveResize=0;outlineConnect=0;portConstraint=eastwest;newEdgeStyle={&quot;curved&quot;:0,&quot;rounded&quot;:0};" vertex="1" parent="1">
          <mxGeometry x="820" y="40" width="100" height="1920" as="geometry" />
        </mxCell>
        <mxCell id="_W2DahZF67eOqPuJs2A8-7" value="Система сповіщень" style="shape=umlLifeline;perimeter=lifelinePerimeter;whiteSpace=wrap;html=1;container=1;dropTarget=0;collapsible=0;recursiveResize=0;outlineConnect=0;portConstraint=eastwest;newEdgeStyle={&quot;curved&quot;:0,&quot;rounded&quot;:0};" vertex="1" parent="1">
          <mxGeometry x="960" y="40" width="100" height="1920" as="geometry" />
        </mxCell>
        <mxCell id="_W2DahZF67eOqPuJs2A8-8" value="" style="endArrow=classic;html=1;rounded=0;" edge="1" parent="1">
          <mxGeometry width="50" height="50" relative="1" as="geometry">
            <mxPoint x="79.5" y="120" as="sourcePoint" />
            <mxPoint x="279.5" y="120" as="targetPoint" />
          </mxGeometry>
        </mxCell>
        <mxCell id="_W2DahZF67eOqPuJs2A8-9" value="Перехід до розділу &quot;Квитки&quot;" style="text;html=1;align=center;verticalAlign=middle;whiteSpace=wrap;rounded=0;" vertex="1" parent="1">
          <mxGeometry x="90" y="80" width="180" height="30" as="geometry" />
        </mxCell>
        <mxCell id="_W2DahZF67eOqPuJs2A8-10" value="&lt;span style=&quot;color: rgba(0, 0, 0, 0); font-family: monospace; font-size: 0px; text-align: start; background-color: rgb(236, 236, 236);&quot;&gt;%3CmxGraphModel%3E%3Croot%3E%3CmxCell%20id%3D%220%22%2F%3E%3CmxCell%20id%3D%221%22%20parent%3D%220%22%2F%3E%3CmxCell%20id%3D%222%22%20value%3D%22%22%20style%3D%22endArrow%3Dclassic%3Bhtml%3D1%3Brounded%3D0%3Bdashed%3D1%3B%22%20edge%3D%221%22%20parent%3D%221%22%3E%3CmxGeometry%20width%3D%2250%22%20height%3D%2250%22%20relative%3D%221%22%20as%3D%22geometry%22%3E%3CmxPoint%20x%3D%22280%22%20y%3D%22280%22%20as%3D%22sourcePoint%22%2F%3E%3CmxPoint%20x%3D%2280%22%20y%3D%22280%22%20as%3D%22targetPoint%22%2F%3E%3C%2FmxGeometry%3E%3C%2FmxCell%3E%3C%2Froot%3E%3C%2FmxGraphModel%3E&lt;/span&gt;" style="endArrow=classic;html=1;rounded=0;dashed=1;" edge="1" parent="1">
          <mxGeometry width="50" height="50" relative="1" as="geometry">
            <mxPoint x="280" y="280" as="sourcePoint" />
            <mxPoint x="80" y="280" as="targetPoint" />
          </mxGeometry>
        </mxCell>
        <mxCell id="_W2DahZF67eOqPuJs2A8-11" value="Показ доступгих типів квитків" style="text;html=1;align=center;verticalAlign=middle;whiteSpace=wrap;rounded=0;" vertex="1" parent="1">
          <mxGeometry x="90" y="240" width="180" height="30" as="geometry" />
        </mxCell>
        <mxCell id="_W2DahZF67eOqPuJs2A8-12" value="" style="endArrow=classic;html=1;rounded=0;" edge="1" parent="1">
          <mxGeometry width="50" height="50" relative="1" as="geometry">
            <mxPoint x="80" y="330" as="sourcePoint" />
            <mxPoint x="280" y="330" as="targetPoint" />
          </mxGeometry>
        </mxCell>
        <mxCell id="_W2DahZF67eOqPuJs2A8-13" value="Вибір типу та кількості квитків" style="text;html=1;align=center;verticalAlign=middle;whiteSpace=wrap;rounded=0;" vertex="1" parent="1">
          <mxGeometry x="90" y="290" width="180" height="30" as="geometry" />
        </mxCell>
        <mxCell id="_W2DahZF67eOqPuJs2A8-14" value="" style="endArrow=classic;html=1;rounded=0;" edge="1" parent="1">
          <mxGeometry width="50" height="50" relative="1" as="geometry">
            <mxPoint x="80" y="380" as="sourcePoint" />
            <mxPoint x="280" y="380" as="targetPoint" />
          </mxGeometry>
        </mxCell>
        <mxCell id="_W2DahZF67eOqPuJs2A8-15" value="Натискання &quot;Продовжити до оплати&quot;" style="text;html=1;align=center;verticalAlign=middle;whiteSpace=wrap;rounded=0;" vertex="1" parent="1">
          <mxGeometry x="90" y="340" width="180" height="30" as="geometry" />
        </mxCell>
        <mxCell id="_W2DahZF67eOqPuJs2A8-16" value="&lt;span style=&quot;color: rgba(0, 0, 0, 0); font-family: monospace; font-size: 0px; text-align: start; background-color: rgb(236, 236, 236);&quot;&gt;%3CmxGraphModel%3E%3Croot%3E%3CmxCell%20id%3D%220%22%2F%3E%3CmxCell%20id%3D%221%22%20parent%3D%220%22%2F%3E%3CmxCell%20id%3D%222%22%20value%3D%22%22%20style%3D%22endArrow%3Dclassic%3Bhtml%3D1%3Brounded%3D0%3Bdashed%3D1%3B%22%20edge%3D%221%22%20parent%3D%221%22%3E%3CmxGeometry%20width%3D%2250%22%20height%3D%2250%22%20relative%3D%221%22%20as%3D%22geometry%22%3E%3CmxPoint%20x%3D%22280%22%20y%3D%22280%22%20as%3D%22sourcePoint%22%2F%3E%3CmxPoint%20x%3D%2280%22%20y%3D%22280%22%20as%3D%22targetPoint%22%2F%3E%3C%2FmxGeometry%3E%3C%2FmxCell%3E%3C%2Froot%3E%3C%2FmxGraphModel%3E&lt;/span&gt;" style="endArrow=classic;html=1;rounded=0;dashed=1;" edge="1" parent="1">
          <mxGeometry width="50" height="50" relative="1" as="geometry">
            <mxPoint x="280" y="430" as="sourcePoint" />
            <mxPoint x="80" y="430" as="targetPoint" />
          </mxGeometry>
        </mxCell>
        <mxCell id="_W2DahZF67eOqPuJs2A8-17" value="Відображення форми для ведення даних" style="text;html=1;align=center;verticalAlign=middle;whiteSpace=wrap;rounded=0;" vertex="1" parent="1">
          <mxGeometry x="90" y="390" width="180" height="30" as="geometry" />
        </mxCell>
        <mxCell id="_W2DahZF67eOqPuJs2A8-18" value="" style="endArrow=classic;html=1;rounded=0;" edge="1" parent="1">
          <mxGeometry width="50" height="50" relative="1" as="geometry">
            <mxPoint x="80" y="484.5" as="sourcePoint" />
            <mxPoint x="280" y="484.5" as="targetPoint" />
          </mxGeometry>
        </mxCell>
        <mxCell id="_W2DahZF67eOqPuJs2A8-19" value="Заповнення особистих даних" style="text;html=1;align=center;verticalAlign=middle;whiteSpace=wrap;rounded=0;" vertex="1" parent="1">
          <mxGeometry x="90" y="440" width="180" height="30" as="geometry" />
        </mxCell>
        <mxCell id="_W2DahZF67eOqPuJs2A8-20" value="" style="endArrow=classic;html=1;rounded=0;" edge="1" parent="1">
          <mxGeometry width="50" height="50" relative="1" as="geometry">
            <mxPoint x="80" y="530" as="sourcePoint" />
            <mxPoint x="280" y="530" as="targetPoint" />
          </mxGeometry>
        </mxCell>
        <mxCell id="_W2DahZF67eOqPuJs2A8-21" value="Натискання &quot;Оплатити&quot;" style="text;html=1;align=center;verticalAlign=middle;whiteSpace=wrap;rounded=0;" vertex="1" parent="1">
          <mxGeometry x="90" y="490" width="180" height="30" as="geometry" />
        </mxCell>
        <mxCell id="_W2DahZF67eOqPuJs2A8-22" value="" style="endArrow=classic;html=1;rounded=0;" edge="1" parent="1" target="_W2DahZF67eOqPuJs2A8-4">
          <mxGeometry width="50" height="50" relative="1" as="geometry">
            <mxPoint x="280" y="160" as="sourcePoint" />
            <mxPoint x="480" y="160" as="targetPoint" />
          </mxGeometry>
        </mxCell>
        <mxCell id="_W2DahZF67eOqPuJs2A8-23" value="Запит доступних типів квитків" style="text;html=1;align=center;verticalAlign=middle;whiteSpace=wrap;rounded=0;" vertex="1" parent="1">
          <mxGeometry x="290" y="120" width="190" height="30" as="geometry" />
        </mxCell>
        <mxCell id="_W2DahZF67eOqPuJs2A8-24" value="" style="endArrow=classic;html=1;rounded=0;dashed=1;" edge="1" parent="1">
          <mxGeometry width="50" height="50" relative="1" as="geometry">
            <mxPoint x="490" y="240" as="sourcePoint" />
            <mxPoint x="280" y="240" as="targetPoint" />
          </mxGeometry>
        </mxCell>
        <mxCell id="_W2DahZF67eOqPuJs2A8-25" value="Відображення типів квитків" style="text;html=1;align=center;verticalAlign=middle;whiteSpace=wrap;rounded=0;" vertex="1" parent="1">
          <mxGeometry x="290" y="200" width="190" height="30" as="geometry" />
        </mxCell>
        <mxCell id="_W2DahZF67eOqPuJs2A8-26" value="" style="endArrow=classic;html=1;rounded=0;" edge="1" parent="1">
          <mxGeometry width="50" height="50" relative="1" as="geometry">
            <mxPoint x="280" y="560" as="sourcePoint" />
            <mxPoint x="490" y="560" as="targetPoint" />
          </mxGeometry>
        </mxCell>
        <mxCell id="_W2DahZF67eOqPuJs2A8-27" value="Передача данизх форми" style="text;html=1;align=center;verticalAlign=middle;whiteSpace=wrap;rounded=0;" vertex="1" parent="1">
          <mxGeometry x="290" y="520" width="190" height="30" as="geometry" />
        </mxCell>
        <mxCell id="_W2DahZF67eOqPuJs2A8-28" value="" style="endArrow=classic;html=1;rounded=0;" edge="1" parent="1">
          <mxGeometry width="50" height="50" relative="1" as="geometry">
            <mxPoint x="490.25" y="170" as="sourcePoint" />
            <mxPoint x="689.75" y="170" as="targetPoint" />
          </mxGeometry>
        </mxCell>
        <mxCell id="_W2DahZF67eOqPuJs2A8-29" value="Запит івнформації про квитки" style="text;html=1;align=center;verticalAlign=middle;whiteSpace=wrap;rounded=0;" vertex="1" parent="1">
          <mxGeometry x="500" y="130" width="180" height="30" as="geometry" />
        </mxCell>
        <mxCell id="_W2DahZF67eOqPuJs2A8-30" value="" style="endArrow=classic;html=1;rounded=0;dashed=1;" edge="1" parent="1">
          <mxGeometry width="50" height="50" relative="1" as="geometry">
            <mxPoint x="695" y="220" as="sourcePoint" />
            <mxPoint x="485" y="220" as="targetPoint" />
          </mxGeometry>
        </mxCell>
        <mxCell id="_W2DahZF67eOqPuJs2A8-32" value="Повернення даних про квитки" style="text;html=1;align=center;verticalAlign=middle;whiteSpace=wrap;rounded=0;" vertex="1" parent="1">
          <mxGeometry x="500" y="180" width="180" height="30" as="geometry" />
        </mxCell>
        <mxCell id="_W2DahZF67eOqPuJs2A8-33" value="" style="endArrow=classic;html=1;rounded=0;" edge="1" parent="1" source="_W2DahZF67eOqPuJs2A8-4">
          <mxGeometry width="50" height="50" relative="1" as="geometry">
            <mxPoint x="550" y="640" as="sourcePoint" />
            <mxPoint x="690" y="640" as="targetPoint" />
          </mxGeometry>
        </mxCell>
        <mxCell id="_W2DahZF67eOqPuJs2A8-34" value="Перевірка наявності квитків" style="text;html=1;align=center;verticalAlign=middle;whiteSpace=wrap;rounded=0;" vertex="1" parent="1">
          <mxGeometry x="500" y="600" width="180" height="30" as="geometry" />
        </mxCell>
        <mxCell id="_W2DahZF67eOqPuJs2A8-35" value="" style="endArrow=classic;html=1;rounded=0;dashed=1;" edge="1" parent="1">
          <mxGeometry width="50" height="50" relative="1" as="geometry">
            <mxPoint x="695" y="700" as="sourcePoint" />
            <mxPoint x="490" y="700" as="targetPoint" />
          </mxGeometry>
        </mxCell>
        <mxCell id="_W2DahZF67eOqPuJs2A8-36" value="Підтвердження наявності квитків" style="text;html=1;align=center;verticalAlign=middle;whiteSpace=wrap;rounded=0;" vertex="1" parent="1">
          <mxGeometry x="500" y="660" width="180" height="30" as="geometry" />
        </mxCell>
        <mxCell id="_W2DahZF67eOqPuJs2A8-37" value="" style="endArrow=classic;html=1;rounded=0;" edge="1" parent="1" target="_W2DahZF67eOqPuJs2A8-6">
          <mxGeometry width="50" height="50" relative="1" as="geometry">
            <mxPoint x="490" y="750" as="sourcePoint" />
            <mxPoint x="830" y="750" as="targetPoint" />
          </mxGeometry>
        </mxCell>
        <mxCell id="_W2DahZF67eOqPuJs2A8-38" value="Запит на проведення оплати" style="text;html=1;align=center;verticalAlign=middle;whiteSpace=wrap;rounded=0;" vertex="1" parent="1">
          <mxGeometry x="500" y="710" width="360" height="30" as="geometry" />
        </mxCell>
        <mxCell id="_W2DahZF67eOqPuJs2A8-39" value="" style="endArrow=classic;html=1;rounded=0;dashed=1;" edge="1" parent="1" target="_W2DahZF67eOqPuJs2A8-4">
          <mxGeometry width="50" height="50" relative="1" as="geometry">
            <mxPoint x="870" y="800" as="sourcePoint" />
            <mxPoint x="660" y="800" as="targetPoint" />
          </mxGeometry>
        </mxCell>
        <mxCell id="_W2DahZF67eOqPuJs2A8-40" value="Підтвердження оплати" style="text;html=1;align=center;verticalAlign=middle;whiteSpace=wrap;rounded=0;" vertex="1" parent="1">
          <mxGeometry x="500" y="760" width="360" height="30" as="geometry" />
        </mxCell>
        <mxCell id="_W2DahZF67eOqPuJs2A8-41" value="" style="endArrow=classic;html=1;rounded=0;" edge="1" parent="1">
          <mxGeometry width="50" height="50" relative="1" as="geometry">
            <mxPoint x="490" y="850" as="sourcePoint" />
            <mxPoint x="690" y="850" as="targetPoint" />
          </mxGeometry>
        </mxCell>
        <mxCell id="_W2DahZF67eOqPuJs2A8-42" value="Резервування квитків" style="text;html=1;align=center;verticalAlign=middle;whiteSpace=wrap;rounded=0;" vertex="1" parent="1">
          <mxGeometry x="500" y="810" width="180" height="30" as="geometry" />
        </mxCell>
        <mxCell id="_W2DahZF67eOqPuJs2A8-43" value="" style="endArrow=classic;html=1;rounded=0;dashed=1;" edge="1" parent="1">
          <mxGeometry width="50" height="50" relative="1" as="geometry">
            <mxPoint x="690" y="900" as="sourcePoint" />
            <mxPoint x="490" y="900" as="targetPoint" />
          </mxGeometry>
        </mxCell>
        <mxCell id="_W2DahZF67eOqPuJs2A8-44" value="Підтвердження резервування" style="text;html=1;align=center;verticalAlign=middle;whiteSpace=wrap;rounded=0;" vertex="1" parent="1">
          <mxGeometry x="500" y="860" width="180" height="30" as="geometry" />
        </mxCell>
        <mxCell id="_W2DahZF67eOqPuJs2A8-45" value="" style="endArrow=classic;html=1;rounded=0;" edge="1" parent="1" target="_W2DahZF67eOqPuJs2A8-7">
          <mxGeometry width="50" height="50" relative="1" as="geometry">
            <mxPoint x="490" y="960" as="sourcePoint" />
            <mxPoint x="870" y="960" as="targetPoint" />
          </mxGeometry>
        </mxCell>
        <mxCell id="_W2DahZF67eOqPuJs2A8-46" value="Запит на подсилання квитка" style="text;html=1;align=center;verticalAlign=middle;whiteSpace=wrap;rounded=0;" vertex="1" parent="1">
          <mxGeometry x="500" y="920" width="500" height="30" as="geometry" />
        </mxCell>
        <mxCell id="_W2DahZF67eOqPuJs2A8-47" value="" style="endArrow=classic;html=1;rounded=0;" edge="1" parent="1" target="_W2DahZF67eOqPuJs2A8-2">
          <mxGeometry width="50" height="50" relative="1" as="geometry">
            <mxPoint x="1010" y="1010" as="sourcePoint" />
            <mxPoint x="490" y="1010" as="targetPoint" />
          </mxGeometry>
        </mxCell>
        <mxCell id="_W2DahZF67eOqPuJs2A8-48" value="Надсилання електроного квитка" style="text;html=1;align=center;verticalAlign=middle;whiteSpace=wrap;rounded=0;" vertex="1" parent="1">
          <mxGeometry x="90" y="970" width="910" height="30" as="geometry" />
        </mxCell>
        <mxCell id="_W2DahZF67eOqPuJs2A8-49" value="" style="endArrow=classic;html=1;rounded=0;dashed=1;" edge="1" parent="1">
          <mxGeometry width="50" height="50" relative="1" as="geometry">
            <mxPoint x="490" y="1060" as="sourcePoint" />
            <mxPoint x="280" y="1060" as="targetPoint" />
          </mxGeometry>
        </mxCell>
        <mxCell id="_W2DahZF67eOqPuJs2A8-50" value="Повідомлення про успішну покупку" style="text;html=1;align=center;verticalAlign=middle;whiteSpace=wrap;rounded=0;" vertex="1" parent="1">
          <mxGeometry x="290" y="1020" width="190" height="30" as="geometry" />
        </mxCell>
        <mxCell id="_W2DahZF67eOqPuJs2A8-51" value="" style="endArrow=classic;html=1;rounded=0;dashed=1;" edge="1" parent="1">
          <mxGeometry width="50" height="50" relative="1" as="geometry">
            <mxPoint x="280" y="1090" as="sourcePoint" />
            <mxPoint x="80" y="1090" as="targetPoint" />
          </mxGeometry>
        </mxCell>
        <mxCell id="_W2DahZF67eOqPuJs2A8-52" value="Показ підтвердження покупки" style="text;html=1;align=center;verticalAlign=middle;whiteSpace=wrap;rounded=0;" vertex="1" parent="1">
          <mxGeometry x="90" y="1040" width="180" height="30" as="geometry" />
        </mxCell>
        <mxCell id="_W2DahZF67eOqPuJs2A8-53" value="" style="endArrow=classic;html=1;rounded=0;dashed=1;" edge="1" parent="1">
          <mxGeometry width="50" height="50" relative="1" as="geometry">
            <mxPoint x="870.5" y="1140" as="sourcePoint" />
            <mxPoint x="489.5" y="1140" as="targetPoint" />
          </mxGeometry>
        </mxCell>
        <mxCell id="_W2DahZF67eOqPuJs2A8-54" value="Повідомлення про помилку оплати" style="text;html=1;align=center;verticalAlign=middle;whiteSpace=wrap;rounded=0;" vertex="1" parent="1">
          <mxGeometry x="500" y="1100" width="360" height="30" as="geometry" />
        </mxCell>
        <mxCell id="_W2DahZF67eOqPuJs2A8-55" value="" style="endArrow=classic;html=1;rounded=0;dashed=1;" edge="1" parent="1">
          <mxGeometry width="50" height="50" relative="1" as="geometry">
            <mxPoint x="490" y="1169" as="sourcePoint" />
            <mxPoint x="280" y="1169" as="targetPoint" />
          </mxGeometry>
        </mxCell>
        <mxCell id="_W2DahZF67eOqPuJs2A8-56" value="Передача повідомлення про помилку" style="text;html=1;align=center;verticalAlign=middle;whiteSpace=wrap;rounded=0;" vertex="1" parent="1">
          <mxGeometry x="290" y="1130" width="190" height="30" as="geometry" />
        </mxCell>
        <mxCell id="_W2DahZF67eOqPuJs2A8-57" value="" style="endArrow=classic;html=1;rounded=0;dashed=1;" edge="1" parent="1">
          <mxGeometry width="50" height="50" relative="1" as="geometry">
            <mxPoint x="280" y="1200" as="sourcePoint" />
            <mxPoint x="80" y="1200" as="targetPoint" />
          </mxGeometry>
        </mxCell>
        <mxCell id="_W2DahZF67eOqPuJs2A8-58" value="Показ повідомлення про помилку оплати" style="text;html=1;align=center;verticalAlign=middle;whiteSpace=wrap;rounded=0;" vertex="1" parent="1">
          <mxGeometry x="90" y="1160" width="180" height="30" as="geometry" />
        </mxCell>
        <mxCell id="_W2DahZF67eOqPuJs2A8-59" value="" style="endArrow=classic;html=1;rounded=0;dashed=1;" edge="1" parent="1">
          <mxGeometry width="50" height="50" relative="1" as="geometry">
            <mxPoint x="490" y="1270" as="sourcePoint" />
            <mxPoint x="280" y="1270" as="targetPoint" />
          </mxGeometry>
        </mxCell>
        <mxCell id="_W2DahZF67eOqPuJs2A8-60" value="Передача повідомлення про обмеження" style="text;html=1;align=center;verticalAlign=middle;whiteSpace=wrap;rounded=0;" vertex="1" parent="1">
          <mxGeometry x="290" y="1230" width="190" height="30" as="geometry" />
        </mxCell>
        <mxCell id="_W2DahZF67eOqPuJs2A8-61" value="" style="endArrow=classic;html=1;rounded=0;dashed=1;" edge="1" parent="1">
          <mxGeometry width="50" height="50" relative="1" as="geometry">
            <mxPoint x="280" y="1308.95" as="sourcePoint" />
            <mxPoint x="80" y="1308.95" as="targetPoint" />
          </mxGeometry>
        </mxCell>
        <mxCell id="_W2DahZF67eOqPuJs2A8-62" value="Пропозиція змінити кількість квитків" style="text;html=1;align=center;verticalAlign=middle;whiteSpace=wrap;rounded=0;" vertex="1" parent="1">
          <mxGeometry x="90" y="1270" width="180" height="30" as="geometry" />
        </mxCell>
        <mxCell id="_W2DahZF67eOqPuJs2A8-64" value="" style="endArrow=classic;html=1;rounded=0;dashed=1;" edge="1" parent="1">
          <mxGeometry width="50" height="50" relative="1" as="geometry">
            <mxPoint x="490" y="1400" as="sourcePoint" />
            <mxPoint x="280" y="1400" as="targetPoint" />
          </mxGeometry>
        </mxCell>
        <mxCell id="_W2DahZF67eOqPuJs2A8-65" value="" style="endArrow=classic;html=1;rounded=0;dashed=1;" edge="1" parent="1">
          <mxGeometry width="50" height="50" relative="1" as="geometry">
            <mxPoint x="280" y="1440" as="sourcePoint" />
            <mxPoint x="80" y="1440" as="targetPoint" />
          </mxGeometry>
        </mxCell>
        <mxCell id="_W2DahZF67eOqPuJs2A8-66" value="Повідомлення про незаповнені поля" style="text;html=1;align=center;verticalAlign=middle;whiteSpace=wrap;rounded=0;" vertex="1" parent="1">
          <mxGeometry x="290" y="1360" width="190" height="30" as="geometry" />
        </mxCell>
        <mxCell id="_W2DahZF67eOqPuJs2A8-67" value="Підсвічування незаповнених полів" style="text;html=1;align=center;verticalAlign=middle;whiteSpace=wrap;rounded=0;" vertex="1" parent="1">
          <mxGeometry x="90" y="1400" width="180" height="30" as="geometry" />
        </mxCell>
        <mxCell id="_W2DahZF67eOqPuJs2A8-69" value="" style="endArrow=classic;html=1;rounded=0;" edge="1" parent="1">
          <mxGeometry width="50" height="50" relative="1" as="geometry">
            <mxPoint x="79.97736842105272" y="1560" as="sourcePoint" />
            <mxPoint x="280.0300000000002" y="1560" as="targetPoint" />
          </mxGeometry>
        </mxCell>
        <mxCell id="_W2DahZF67eOqPuJs2A8-70" value="натискання &quot;Скасування&quot;" style="text;html=1;align=center;verticalAlign=middle;whiteSpace=wrap;rounded=0;" vertex="1" parent="1">
          <mxGeometry x="90" y="1520" width="180" height="30" as="geometry" />
        </mxCell>
        <mxCell id="_W2DahZF67eOqPuJs2A8-71" value="" style="endArrow=classic;html=1;rounded=0;dashed=1;" edge="1" parent="1">
          <mxGeometry width="50" height="50" relative="1" as="geometry">
            <mxPoint x="280" y="1610" as="sourcePoint" />
            <mxPoint x="80" y="1610" as="targetPoint" />
          </mxGeometry>
        </mxCell>
        <mxCell id="_W2DahZF67eOqPuJs2A8-72" value="Запит підтвердження скасування" style="text;html=1;align=center;verticalAlign=middle;whiteSpace=wrap;rounded=0;" vertex="1" parent="1">
          <mxGeometry x="90" y="1570" width="180" height="30" as="geometry" />
        </mxCell>
        <mxCell id="_W2DahZF67eOqPuJs2A8-73" value="" style="endArrow=classic;html=1;rounded=0;" edge="1" parent="1">
          <mxGeometry width="50" height="50" relative="1" as="geometry">
            <mxPoint x="79.97736842105272" y="1670" as="sourcePoint" />
            <mxPoint x="280.0300000000002" y="1670" as="targetPoint" />
          </mxGeometry>
        </mxCell>
        <mxCell id="_W2DahZF67eOqPuJs2A8-74" value="Підтвердження скасування" style="text;html=1;align=center;verticalAlign=middle;whiteSpace=wrap;rounded=0;" vertex="1" parent="1">
          <mxGeometry x="90" y="1630" width="180" height="30" as="geometry" />
        </mxCell>
        <mxCell id="_W2DahZF67eOqPuJs2A8-75" value="" style="endArrow=classic;html=1;rounded=0;dashed=1;" edge="1" parent="1">
          <mxGeometry width="50" height="50" relative="1" as="geometry">
            <mxPoint x="280" y="1720" as="sourcePoint" />
            <mxPoint x="80" y="1720" as="targetPoint" />
          </mxGeometry>
        </mxCell>
        <mxCell id="_W2DahZF67eOqPuJs2A8-76" value="Повернення на сторінку вибору квитків" style="text;html=1;align=center;verticalAlign=middle;whiteSpace=wrap;rounded=0;" vertex="1" parent="1">
          <mxGeometry x="90" y="1680" width="180" height="30" as="geometry" />
        </mxCell>
        <mxCell id="_W2DahZF67eOqPuJs2A8-77" value="" style="endArrow=classic;html=1;rounded=0;dashed=1;" edge="1" parent="1">
          <mxGeometry width="50" height="50" relative="1" as="geometry">
            <mxPoint x="280" y="1940" as="sourcePoint" />
            <mxPoint x="80" y="1940" as="targetPoint" />
          </mxGeometry>
        </mxCell>
        <mxCell id="_W2DahZF67eOqPuJs2A8-78" value="Пропозиція повторити спробу пізніше" style="text;html=1;align=center;verticalAlign=middle;whiteSpace=wrap;rounded=0;" vertex="1" parent="1">
          <mxGeometry x="90" y="1900" width="180" height="30" as="geometry" />
        </mxCell>
        <mxCell id="_W2DahZF67eOqPuJs2A8-79" value="" style="endArrow=classic;html=1;rounded=0;dashed=1;" edge="1" parent="1">
          <mxGeometry width="50" height="50" relative="1" as="geometry">
            <mxPoint x="490" y="1914.47" as="sourcePoint" />
            <mxPoint x="280" y="1914.47" as="targetPoint" />
          </mxGeometry>
        </mxCell>
        <mxCell id="_W2DahZF67eOqPuJs2A8-80" value="Передача повідомлення про помилку" style="text;html=1;align=center;verticalAlign=middle;whiteSpace=wrap;rounded=0;" vertex="1" parent="1">
          <mxGeometry x="290" y="1870" width="190" height="30" as="geometry" />
        </mxCell>
        <mxCell id="_W2DahZF67eOqPuJs2A8-81" value="" style="endArrow=classic;html=1;rounded=0;dashed=1;" edge="1" parent="1">
          <mxGeometry width="50" height="50" relative="1" as="geometry">
            <mxPoint x="870.5" y="1890" as="sourcePoint" />
            <mxPoint x="489.5" y="1890" as="targetPoint" />
          </mxGeometry>
        </mxCell>
        <mxCell id="_W2DahZF67eOqPuJs2A8-82" value="Повідомлення про технічну помилку" style="text;html=1;align=center;verticalAlign=middle;whiteSpace=wrap;rounded=0;" vertex="1" parent="1">
          <mxGeometry x="500" y="1850" width="360" height="30" as="geometry" />
        </mxCell>
        <mxCell id="_W2DahZF67eOqPuJs2A8-83" value="" style="endArrow=classic;html=1;rounded=0;" edge="1" parent="1">
          <mxGeometry width="50" height="50" relative="1" as="geometry">
            <mxPoint x="489.97736842105246" y="1850" as="sourcePoint" />
            <mxPoint x="870.0300000000002" y="1850" as="targetPoint" />
          </mxGeometry>
        </mxCell>
        <mxCell id="_W2DahZF67eOqPuJs2A8-84" value="Запит на проведення оплати" style="text;html=1;align=center;verticalAlign=middle;whiteSpace=wrap;rounded=0;" vertex="1" parent="1">
          <mxGeometry x="500" y="1810" width="360" height="30" as="geometry" />
        </mxCell>
        <mxCell id="_W2DahZF67eOqPuJs2A8-85" value="Оплата&amp;nbsp;&lt;br&gt;успішна" style="shape=umlFrame;whiteSpace=wrap;html=1;pointerEvents=0;" vertex="1" parent="1">
          <mxGeometry x="20" y="760" width="1000" height="340" as="geometry" />
        </mxCell>
        <mxCell id="_W2DahZF67eOqPuJs2A8-86" value="Квитки&lt;br&gt;Доступні" style="shape=umlFrame;whiteSpace=wrap;html=1;pointerEvents=0;" vertex="1" parent="1">
          <mxGeometry x="20" y="600" width="1000" height="720" as="geometry" />
        </mxCell>
        <mxCell id="_W2DahZF67eOqPuJs2A8-87" value="Проблема з платіжною&lt;br&gt;системою" style="shape=umlFrame;whiteSpace=wrap;html=1;pointerEvents=0;width=60;height=80;" vertex="1" parent="1">
          <mxGeometry x="20" y="1800" width="990" height="160" as="geometry" />
        </mxCell>
        <mxCell id="_W2DahZF67eOqPuJs2A8-88" value="Скасування Оплати" style="shape=umlFrame;whiteSpace=wrap;html=1;pointerEvents=0;width=70;height=40;" vertex="1" parent="1">
          <mxGeometry x="10" y="1520" width="280" height="210" as="geometry" />
        </mxCell>
        <mxCell id="_W2DahZF67eOqPuJs2A8-89" value="Помилка&lt;br&gt;валідації" style="shape=umlFrame;whiteSpace=wrap;html=1;pointerEvents=0;" vertex="1" parent="1">
          <mxGeometry x="20" y="1320" width="1000" height="200" as="geometry" />
        </mxCell>
        <mxCell id="_W2DahZF67eOqPuJs2A8-90" value="" style="endArrow=classic;html=1;rounded=0;dashed=1;" edge="1" parent="1">
          <mxGeometry width="50" height="50" relative="1" as="geometry">
            <mxPoint x="690" y="1260" as="sourcePoint" />
            <mxPoint x="490" y="1260" as="targetPoint" />
          </mxGeometry>
        </mxCell>
        <mxCell id="_W2DahZF67eOqPuJs2A8-91" value="Повідомлення про недостаню кількість" style="text;html=1;align=center;verticalAlign=middle;whiteSpace=wrap;rounded=0;" vertex="1" parent="1">
          <mxGeometry x="500" y="1220" width="180" height="30" as="geometry" />
        </mxCell>
        <mxCell id="_W2DahZF67eOqPuJs2A8-92" value="Недостатння кількість&lt;br&gt;квитків" style="shape=umlFrame;whiteSpace=wrap;html=1;pointerEvents=0;width=70;height=40;" vertex="1" parent="1">
          <mxGeometry x="10" y="1210" width="1010" height="110" as="geometry" />
        </mxCell>
      </root>
    </mxGraphModel>
  </diagram>
  <diagram id="mR6-dKw7gGXuCDXrKhvr" name="Сторінка-3">
    <mxGraphModel dx="3679" dy="1486" grid="1" gridSize="10" guides="1" tooltips="1" connect="1" arrows="1" fold="1" page="1" pageScale="1" pageWidth="827" pageHeight="1169" math="0" shadow="0">
      <root>
        <mxCell id="0" />
        <mxCell id="1" parent="0" />
        <mxCell id="ny_3pKRx650wduWJXIqb-1" value="" style="shape=umlLifeline;perimeter=lifelinePerimeter;whiteSpace=wrap;html=1;container=1;dropTarget=0;collapsible=0;recursiveResize=0;outlineConnect=0;portConstraint=eastwest;newEdgeStyle={&quot;curved&quot;:0,&quot;rounded&quot;:0};participant=umlActor;" vertex="1" parent="1">
          <mxGeometry x="30" y="40" width="20" height="1800" as="geometry" />
        </mxCell>
        <mxCell id="ny_3pKRx650wduWJXIqb-2" value="Панель Адміністратора" style="shape=umlLifeline;perimeter=lifelinePerimeter;whiteSpace=wrap;html=1;container=1;dropTarget=0;collapsible=0;recursiveResize=0;outlineConnect=0;portConstraint=eastwest;newEdgeStyle={&quot;curved&quot;:0,&quot;rounded&quot;:0};" vertex="1" parent="1">
          <mxGeometry x="200" y="40" width="100" height="1800" as="geometry" />
        </mxCell>
        <mxCell id="ny_3pKRx650wduWJXIqb-3" value="Система" style="shape=umlLifeline;perimeter=lifelinePerimeter;whiteSpace=wrap;html=1;container=1;dropTarget=0;collapsible=0;recursiveResize=0;outlineConnect=0;portConstraint=eastwest;newEdgeStyle={&quot;curved&quot;:0,&quot;rounded&quot;:0};" vertex="1" parent="1">
          <mxGeometry x="400" y="40" width="100" height="1800" as="geometry" />
        </mxCell>
        <mxCell id="ny_3pKRx650wduWJXIqb-4" value="База даних" style="shape=umlLifeline;perimeter=lifelinePerimeter;whiteSpace=wrap;html=1;container=1;dropTarget=0;collapsible=0;recursiveResize=0;outlineConnect=0;portConstraint=eastwest;newEdgeStyle={&quot;curved&quot;:0,&quot;rounded&quot;:0};" vertex="1" parent="1">
          <mxGeometry x="590" y="40" width="100" height="1800" as="geometry" />
        </mxCell>
        <mxCell id="ny_3pKRx650wduWJXIqb-5" value="Файлове сховище" style="shape=umlLifeline;perimeter=lifelinePerimeter;whiteSpace=wrap;html=1;container=1;dropTarget=0;collapsible=0;recursiveResize=0;outlineConnect=0;portConstraint=eastwest;newEdgeStyle={&quot;curved&quot;:0,&quot;rounded&quot;:0};" vertex="1" parent="1">
          <mxGeometry x="740" y="40" width="100" height="1800" as="geometry" />
        </mxCell>
        <mxCell id="ny_3pKRx650wduWJXIqb-6" value="" style="endArrow=classic;html=1;rounded=0;" edge="1" parent="1">
          <mxGeometry width="50" height="50" relative="1" as="geometry">
            <mxPoint x="249.5" y="160" as="sourcePoint" />
            <mxPoint x="449.5" y="160" as="targetPoint" />
          </mxGeometry>
        </mxCell>
        <mxCell id="ny_3pKRx650wduWJXIqb-8" value="Автенфікація адміністратора" style="text;html=1;align=center;verticalAlign=middle;whiteSpace=wrap;rounded=0;" vertex="1" parent="1">
          <mxGeometry x="260" y="120" width="180" height="30" as="geometry" />
        </mxCell>
        <mxCell id="ny_3pKRx650wduWJXIqb-9" value="" style="endArrow=classic;html=1;rounded=0;" edge="1" parent="1">
          <mxGeometry width="50" height="50" relative="1" as="geometry">
            <mxPoint x="450" y="189.5" as="sourcePoint" />
            <mxPoint x="640" y="189.5" as="targetPoint" />
          </mxGeometry>
        </mxCell>
        <mxCell id="ny_3pKRx650wduWJXIqb-10" value="" style="endArrow=classic;html=1;rounded=0;" edge="1" parent="1">
          <mxGeometry width="50" height="50" relative="1" as="geometry">
            <mxPoint x="40" y="130" as="sourcePoint" />
            <mxPoint x="250" y="130" as="targetPoint" />
          </mxGeometry>
        </mxCell>
        <mxCell id="ny_3pKRx650wduWJXIqb-11" value="Вхід до облікового запису" style="text;html=1;align=center;verticalAlign=middle;whiteSpace=wrap;rounded=0;" vertex="1" parent="1">
          <mxGeometry x="50" y="90" width="190" height="30" as="geometry" />
        </mxCell>
        <mxCell id="ny_3pKRx650wduWJXIqb-12" value="Перевірка облікових даних" style="text;html=1;align=center;verticalAlign=middle;whiteSpace=wrap;rounded=0;" vertex="1" parent="1">
          <mxGeometry x="460" y="150" width="170" height="30" as="geometry" />
        </mxCell>
        <mxCell id="ny_3pKRx650wduWJXIqb-13" value="" style="endArrow=classic;html=1;rounded=0;dashed=1;" edge="1" parent="1">
          <mxGeometry width="50" height="50" relative="1" as="geometry">
            <mxPoint x="638.75" y="240" as="sourcePoint" />
            <mxPoint x="451.25" y="240" as="targetPoint" />
          </mxGeometry>
        </mxCell>
        <mxCell id="ny_3pKRx650wduWJXIqb-14" value="Підтвердження авторизації" style="text;html=1;align=center;verticalAlign=middle;whiteSpace=wrap;rounded=0;" vertex="1" parent="1">
          <mxGeometry x="460" y="200" width="170" height="30" as="geometry" />
        </mxCell>
        <mxCell id="ny_3pKRx650wduWJXIqb-15" value="" style="endArrow=classic;html=1;rounded=0;dashed=1;" edge="1" parent="1" target="ny_3pKRx650wduWJXIqb-2">
          <mxGeometry width="50" height="50" relative="1" as="geometry">
            <mxPoint x="447.5" y="270" as="sourcePoint" />
            <mxPoint x="260" y="270" as="targetPoint" />
          </mxGeometry>
        </mxCell>
        <mxCell id="ny_3pKRx650wduWJXIqb-17" value="Надання доступу" style="text;html=1;align=center;verticalAlign=middle;whiteSpace=wrap;rounded=0;" vertex="1" parent="1">
          <mxGeometry x="260" y="230" width="180" height="30" as="geometry" />
        </mxCell>
        <mxCell id="ny_3pKRx650wduWJXIqb-18" value="" style="endArrow=classic;html=1;rounded=0;" edge="1" parent="1">
          <mxGeometry width="50" height="50" relative="1" as="geometry">
            <mxPoint x="40" y="310" as="sourcePoint" />
            <mxPoint x="250" y="310" as="targetPoint" />
          </mxGeometry>
        </mxCell>
        <mxCell id="ny_3pKRx650wduWJXIqb-19" value="Перехід до розділу &quot;Експонат&quot;" style="text;html=1;align=center;verticalAlign=middle;whiteSpace=wrap;rounded=0;" vertex="1" parent="1">
          <mxGeometry x="50" y="270" width="190" height="30" as="geometry" />
        </mxCell>
        <mxCell id="ny_3pKRx650wduWJXIqb-20" value="" style="endArrow=classic;html=1;rounded=0;" edge="1" parent="1">
          <mxGeometry width="50" height="50" relative="1" as="geometry">
            <mxPoint x="250" y="340" as="sourcePoint" />
            <mxPoint x="450" y="340" as="targetPoint" />
          </mxGeometry>
        </mxCell>
        <mxCell id="ny_3pKRx650wduWJXIqb-21" value="Запит списку експонатів" style="text;html=1;align=center;verticalAlign=middle;whiteSpace=wrap;rounded=0;" vertex="1" parent="1">
          <mxGeometry x="260" y="300" width="180" height="30" as="geometry" />
        </mxCell>
        <mxCell id="ny_3pKRx650wduWJXIqb-22" value="" style="endArrow=classic;html=1;rounded=0;" edge="1" parent="1">
          <mxGeometry width="50" height="50" relative="1" as="geometry">
            <mxPoint x="450" y="370" as="sourcePoint" />
            <mxPoint x="640" y="370" as="targetPoint" />
          </mxGeometry>
        </mxCell>
        <mxCell id="ny_3pKRx650wduWJXIqb-23" value="Перевірка облікових даних" style="text;html=1;align=center;verticalAlign=middle;whiteSpace=wrap;rounded=0;" vertex="1" parent="1">
          <mxGeometry x="460" y="330" width="170" height="30" as="geometry" />
        </mxCell>
        <mxCell id="ny_3pKRx650wduWJXIqb-24" value="" style="endArrow=classic;html=1;rounded=0;dashed=1;" edge="1" parent="1">
          <mxGeometry width="50" height="50" relative="1" as="geometry">
            <mxPoint x="638.75" y="420" as="sourcePoint" />
            <mxPoint x="451.25" y="420" as="targetPoint" />
          </mxGeometry>
        </mxCell>
        <mxCell id="ny_3pKRx650wduWJXIqb-25" value="Повернення списку експонатів" style="text;html=1;align=center;verticalAlign=middle;whiteSpace=wrap;rounded=0;" vertex="1" parent="1">
          <mxGeometry x="460" y="380" width="170" height="30" as="geometry" />
        </mxCell>
        <mxCell id="ny_3pKRx650wduWJXIqb-26" value="" style="endArrow=classic;html=1;rounded=0;dashed=1;" edge="1" parent="1">
          <mxGeometry width="50" height="50" relative="1" as="geometry">
            <mxPoint x="448.75" y="450" as="sourcePoint" />
            <mxPoint x="251.25" y="450" as="targetPoint" />
          </mxGeometry>
        </mxCell>
        <mxCell id="ny_3pKRx650wduWJXIqb-27" value="Відображення списку експонатів" style="text;html=1;align=center;verticalAlign=middle;whiteSpace=wrap;rounded=0;" vertex="1" parent="1">
          <mxGeometry x="260" y="410" width="180" height="30" as="geometry" />
        </mxCell>
        <mxCell id="ny_3pKRx650wduWJXIqb-28" value="" style="endArrow=classic;html=1;rounded=0;" edge="1" parent="1">
          <mxGeometry width="50" height="50" relative="1" as="geometry">
            <mxPoint x="40" y="480" as="sourcePoint" />
            <mxPoint x="250" y="480" as="targetPoint" />
          </mxGeometry>
        </mxCell>
        <mxCell id="ny_3pKRx650wduWJXIqb-29" value="Натискання &quot;Додати новий експонат&quot;" style="text;html=1;align=center;verticalAlign=middle;whiteSpace=wrap;rounded=0;" vertex="1" parent="1">
          <mxGeometry x="50" y="440" width="190" height="30" as="geometry" />
        </mxCell>
        <mxCell id="ny_3pKRx650wduWJXIqb-30" value="" style="endArrow=classic;html=1;rounded=0;dashed=1;" edge="1" parent="1" target="ny_3pKRx650wduWJXIqb-1">
          <mxGeometry width="50" height="50" relative="1" as="geometry">
            <mxPoint x="247.5" y="530" as="sourcePoint" />
            <mxPoint x="50" y="530" as="targetPoint" />
          </mxGeometry>
        </mxCell>
        <mxCell id="ny_3pKRx650wduWJXIqb-31" value="Відображення форми додавання" style="text;html=1;align=center;verticalAlign=middle;whiteSpace=wrap;rounded=0;" vertex="1" parent="1">
          <mxGeometry x="50" y="490" width="190" height="30" as="geometry" />
        </mxCell>
        <mxCell id="ny_3pKRx650wduWJXIqb-32" value="" style="endArrow=classic;html=1;rounded=0;" edge="1" parent="1">
          <mxGeometry width="50" height="50" relative="1" as="geometry">
            <mxPoint x="40" y="580" as="sourcePoint" />
            <mxPoint x="250" y="580" as="targetPoint" />
          </mxGeometry>
        </mxCell>
        <mxCell id="ny_3pKRx650wduWJXIqb-33" value="Заповнення даних (назва, опис, категорія)" style="text;html=1;align=center;verticalAlign=middle;whiteSpace=wrap;rounded=0;" vertex="1" parent="1">
          <mxGeometry x="50" y="540" width="190" height="30" as="geometry" />
        </mxCell>
        <mxCell id="ny_3pKRx650wduWJXIqb-34" value="" style="endArrow=classic;html=1;rounded=0;" edge="1" parent="1">
          <mxGeometry width="50" height="50" relative="1" as="geometry">
            <mxPoint x="40" y="630" as="sourcePoint" />
            <mxPoint x="250" y="630" as="targetPoint" />
          </mxGeometry>
        </mxCell>
        <mxCell id="ny_3pKRx650wduWJXIqb-35" value="Завантаження фотографії" style="text;html=1;align=center;verticalAlign=middle;whiteSpace=wrap;rounded=0;" vertex="1" parent="1">
          <mxGeometry x="50" y="590" width="190" height="30" as="geometry" />
        </mxCell>
        <mxCell id="ny_3pKRx650wduWJXIqb-37" value="" style="endArrow=classic;html=1;rounded=0;" edge="1" parent="1">
          <mxGeometry width="50" height="50" relative="1" as="geometry">
            <mxPoint x="40" y="680" as="sourcePoint" />
            <mxPoint x="250" y="680" as="targetPoint" />
          </mxGeometry>
        </mxCell>
        <mxCell id="ny_3pKRx650wduWJXIqb-38" value="Завантаження фотографії" style="text;html=1;align=center;verticalAlign=middle;whiteSpace=wrap;rounded=0;" vertex="1" parent="1">
          <mxGeometry x="50" y="640" width="190" height="30" as="geometry" />
        </mxCell>
        <mxCell id="ny_3pKRx650wduWJXIqb-39" value="" style="endArrow=classic;html=1;rounded=0;" edge="1" parent="1">
          <mxGeometry width="50" height="50" relative="1" as="geometry">
            <mxPoint x="250" y="740" as="sourcePoint" />
            <mxPoint x="450" y="740" as="targetPoint" />
          </mxGeometry>
        </mxCell>
        <mxCell id="ny_3pKRx650wduWJXIqb-40" value="Передача даних форми та файлів" style="text;html=1;align=center;verticalAlign=middle;whiteSpace=wrap;rounded=0;" vertex="1" parent="1">
          <mxGeometry x="260" y="700" width="180" height="30" as="geometry" />
        </mxCell>
        <mxCell id="ny_3pKRx650wduWJXIqb-41" value="" style="endArrow=classic;html=1;rounded=0;" edge="1" parent="1">
          <mxGeometry width="50" height="50" relative="1" as="geometry">
            <mxPoint x="450" y="790" as="sourcePoint" />
            <mxPoint x="640" y="790" as="targetPoint" />
          </mxGeometry>
        </mxCell>
        <mxCell id="ny_3pKRx650wduWJXIqb-42" value="Перевірка на дублювання назви" style="text;html=1;align=center;verticalAlign=middle;whiteSpace=wrap;rounded=0;" vertex="1" parent="1">
          <mxGeometry x="460" y="750" width="170" height="30" as="geometry" />
        </mxCell>
        <mxCell id="ny_3pKRx650wduWJXIqb-43" value="" style="endArrow=classic;html=1;rounded=0;" edge="1" parent="1">
          <mxGeometry width="50" height="50" relative="1" as="geometry">
            <mxPoint x="450.25" y="840" as="sourcePoint" />
            <mxPoint x="789.75" y="840" as="targetPoint" />
            <Array as="points">
              <mxPoint x="580.25" y="840" />
            </Array>
          </mxGeometry>
        </mxCell>
        <mxCell id="ny_3pKRx650wduWJXIqb-44" value="Завантаження фотографій" style="text;html=1;align=center;verticalAlign=middle;whiteSpace=wrap;rounded=0;" vertex="1" parent="1">
          <mxGeometry x="460" y="810" width="320" height="30" as="geometry" />
        </mxCell>
        <mxCell id="ny_3pKRx650wduWJXIqb-45" value="" style="endArrow=classic;html=1;rounded=0;dashed=1;" edge="1" parent="1">
          <mxGeometry width="50" height="50" relative="1" as="geometry">
            <mxPoint x="790" y="890" as="sourcePoint" />
            <mxPoint x="450" y="890" as="targetPoint" />
            <Array as="points">
              <mxPoint x="700.5" y="890" />
            </Array>
          </mxGeometry>
        </mxCell>
        <mxCell id="ny_3pKRx650wduWJXIqb-46" value="Підтвердження завантаження" style="text;html=1;align=center;verticalAlign=middle;whiteSpace=wrap;rounded=0;" vertex="1" parent="1">
          <mxGeometry x="460" y="850" width="320" height="30" as="geometry" />
        </mxCell>
        <mxCell id="ny_3pKRx650wduWJXIqb-47" value="" style="endArrow=classic;html=1;rounded=0;dashed=1;" edge="1" parent="1">
          <mxGeometry width="50" height="50" relative="1" as="geometry">
            <mxPoint x="638.75" y="980" as="sourcePoint" />
            <mxPoint x="451.25" y="980" as="targetPoint" />
          </mxGeometry>
        </mxCell>
        <mxCell id="ny_3pKRx650wduWJXIqb-49" value="Підтвердження збереження" style="text;html=1;align=center;verticalAlign=middle;whiteSpace=wrap;rounded=0;" vertex="1" parent="1">
          <mxGeometry x="460" y="940" width="170" height="30" as="geometry" />
        </mxCell>
        <mxCell id="ny_3pKRx650wduWJXIqb-50" value="" style="endArrow=classic;html=1;rounded=0;dashed=1;" edge="1" parent="1">
          <mxGeometry width="50" height="50" relative="1" as="geometry">
            <mxPoint x="447.5" y="1000" as="sourcePoint" />
            <mxPoint x="249.5" y="1000" as="targetPoint" />
          </mxGeometry>
        </mxCell>
        <mxCell id="ny_3pKRx650wduWJXIqb-51" value="Повідомлення про успіх" style="text;html=1;align=center;verticalAlign=middle;whiteSpace=wrap;rounded=0;" vertex="1" parent="1">
          <mxGeometry x="260" y="960" width="180" height="30" as="geometry" />
        </mxCell>
        <mxCell id="ny_3pKRx650wduWJXIqb-52" value="" style="endArrow=classic;html=1;rounded=0;dashed=1;" edge="1" parent="1">
          <mxGeometry width="50" height="50" relative="1" as="geometry">
            <mxPoint x="248.75" y="1030" as="sourcePoint" />
            <mxPoint x="41.25" y="1030" as="targetPoint" />
          </mxGeometry>
        </mxCell>
        <mxCell id="ny_3pKRx650wduWJXIqb-53" value="Показ повідомлення про успішне додавання" style="text;html=1;align=center;verticalAlign=middle;whiteSpace=wrap;rounded=0;" vertex="1" parent="1">
          <mxGeometry x="50" y="990" width="190" height="30" as="geometry" />
        </mxCell>
        <mxCell id="ny_3pKRx650wduWJXIqb-54" value="" style="endArrow=classic;html=1;rounded=0;" edge="1" parent="1">
          <mxGeometry width="50" height="50" relative="1" as="geometry">
            <mxPoint x="250" y="1080" as="sourcePoint" />
            <mxPoint x="450" y="1080" as="targetPoint" />
          </mxGeometry>
        </mxCell>
        <mxCell id="ny_3pKRx650wduWJXIqb-55" value="Запит оновленого списку експонатів" style="text;html=1;align=center;verticalAlign=middle;whiteSpace=wrap;rounded=0;" vertex="1" parent="1">
          <mxGeometry x="260" y="1040" width="180" height="30" as="geometry" />
        </mxCell>
        <mxCell id="ny_3pKRx650wduWJXIqb-56" value="" style="endArrow=classic;html=1;rounded=0;" edge="1" parent="1">
          <mxGeometry width="50" height="50" relative="1" as="geometry">
            <mxPoint x="450" y="1090" as="sourcePoint" />
            <mxPoint x="640" y="1090" as="targetPoint" />
          </mxGeometry>
        </mxCell>
        <mxCell id="ny_3pKRx650wduWJXIqb-57" value="Отримання оновлених даних" style="text;html=1;align=center;verticalAlign=middle;whiteSpace=wrap;rounded=0;" vertex="1" parent="1">
          <mxGeometry x="460" y="1060" width="170" height="30" as="geometry" />
        </mxCell>
        <mxCell id="ny_3pKRx650wduWJXIqb-58" value="" style="endArrow=classic;html=1;rounded=0;dashed=1;" edge="1" parent="1">
          <mxGeometry width="50" height="50" relative="1" as="geometry">
            <mxPoint x="638.75" y="1150" as="sourcePoint" />
            <mxPoint x="451.25" y="1150" as="targetPoint" />
          </mxGeometry>
        </mxCell>
        <mxCell id="ny_3pKRx650wduWJXIqb-59" value="Повернення оновленого списку" style="text;html=1;align=center;verticalAlign=middle;whiteSpace=wrap;rounded=0;" vertex="1" parent="1">
          <mxGeometry x="460" y="1110" width="170" height="30" as="geometry" />
        </mxCell>
        <mxCell id="ny_3pKRx650wduWJXIqb-60" value="" style="endArrow=classic;html=1;rounded=0;" edge="1" parent="1">
          <mxGeometry width="50" height="50" relative="1" as="geometry">
            <mxPoint x="450" y="930" as="sourcePoint" />
            <mxPoint x="640" y="930" as="targetPoint" />
          </mxGeometry>
        </mxCell>
        <mxCell id="ny_3pKRx650wduWJXIqb-61" value="Збереження даних експонату" style="text;html=1;align=center;verticalAlign=middle;whiteSpace=wrap;rounded=0;" vertex="1" parent="1">
          <mxGeometry x="460" y="900" width="170" height="30" as="geometry" />
        </mxCell>
        <mxCell id="ny_3pKRx650wduWJXIqb-62" value="" style="endArrow=classic;html=1;rounded=0;dashed=1;" edge="1" parent="1">
          <mxGeometry width="50" height="50" relative="1" as="geometry">
            <mxPoint x="448.75" y="1169" as="sourcePoint" />
            <mxPoint x="251.25" y="1169" as="targetPoint" />
          </mxGeometry>
        </mxCell>
        <mxCell id="ny_3pKRx650wduWJXIqb-63" value="Відображення оновленого списку" style="text;html=1;align=center;verticalAlign=middle;whiteSpace=wrap;rounded=0;" vertex="1" parent="1">
          <mxGeometry x="260" y="1130" width="180" height="30" as="geometry" />
        </mxCell>
        <mxCell id="ny_3pKRx650wduWJXIqb-64" value="" style="endArrow=classic;html=1;rounded=0;dashed=1;" edge="1" parent="1">
          <mxGeometry width="50" height="50" relative="1" as="geometry">
            <mxPoint x="257.5" y="1180" as="sourcePoint" />
            <mxPoint x="50" y="1180" as="targetPoint" />
          </mxGeometry>
        </mxCell>
        <mxCell id="ny_3pKRx650wduWJXIqb-65" value="Показ оновленого списку з новим експонатом" style="text;html=1;align=center;verticalAlign=middle;whiteSpace=wrap;rounded=0;" vertex="1" parent="1">
          <mxGeometry x="50" y="1140" width="190" height="30" as="geometry" />
        </mxCell>
        <mxCell id="ny_3pKRx650wduWJXIqb-66" value="" style="endArrow=classic;html=1;rounded=0;dashed=1;" edge="1" parent="1" source="ny_3pKRx650wduWJXIqb-5">
          <mxGeometry width="50" height="50" relative="1" as="geometry">
            <mxPoint x="638.75" y="1330" as="sourcePoint" />
            <mxPoint x="451.25" y="1330" as="targetPoint" />
          </mxGeometry>
        </mxCell>
        <mxCell id="ny_3pKRx650wduWJXIqb-67" value="Повідомлення про помилку" style="text;html=1;align=center;verticalAlign=middle;whiteSpace=wrap;rounded=0;" vertex="1" parent="1">
          <mxGeometry x="460" y="1290" width="320" height="30" as="geometry" />
        </mxCell>
        <mxCell id="ny_3pKRx650wduWJXIqb-68" value="" style="endArrow=classic;html=1;rounded=0;dashed=1;" edge="1" parent="1">
          <mxGeometry width="50" height="50" relative="1" as="geometry">
            <mxPoint x="448.75" y="1360" as="sourcePoint" />
            <mxPoint x="251.25" y="1360" as="targetPoint" />
          </mxGeometry>
        </mxCell>
        <mxCell id="ny_3pKRx650wduWJXIqb-69" value="Переда повідомлення про помилку" style="text;html=1;align=center;verticalAlign=middle;whiteSpace=wrap;rounded=0;" vertex="1" parent="1">
          <mxGeometry x="260" y="1320" width="180" height="30" as="geometry" />
        </mxCell>
        <mxCell id="ny_3pKRx650wduWJXIqb-70" value="" style="endArrow=classic;html=1;rounded=0;dashed=1;" edge="1" parent="1">
          <mxGeometry width="50" height="50" relative="1" as="geometry">
            <mxPoint x="248.75" y="1400" as="sourcePoint" />
            <mxPoint x="41.25" y="1400" as="targetPoint" />
          </mxGeometry>
        </mxCell>
        <mxCell id="ny_3pKRx650wduWJXIqb-71" value="Показ повідомлення &quot;Помилка при завантаженні фотографії&quot;" style="text;html=1;align=center;verticalAlign=middle;whiteSpace=wrap;rounded=0;" vertex="1" parent="1">
          <mxGeometry x="50" y="1360" width="190" height="30" as="geometry" />
        </mxCell>
        <mxCell id="ny_3pKRx650wduWJXIqb-72" value="" style="endArrow=classic;html=1;rounded=0;dashed=1;" edge="1" parent="1">
          <mxGeometry width="50" height="50" relative="1" as="geometry">
            <mxPoint x="638.75" y="1450" as="sourcePoint" />
            <mxPoint x="451.25" y="1450" as="targetPoint" />
          </mxGeometry>
        </mxCell>
        <mxCell id="ny_3pKRx650wduWJXIqb-73" value="Повідомлення про дублювання" style="text;html=1;align=center;verticalAlign=middle;whiteSpace=wrap;rounded=0;" vertex="1" parent="1">
          <mxGeometry x="460" y="1410" width="170" height="30" as="geometry" />
        </mxCell>
        <mxCell id="ny_3pKRx650wduWJXIqb-74" value="" style="endArrow=classic;html=1;rounded=0;dashed=1;" edge="1" parent="1">
          <mxGeometry width="50" height="50" relative="1" as="geometry">
            <mxPoint x="448.75" y="1480" as="sourcePoint" />
            <mxPoint x="251.25" y="1480" as="targetPoint" />
          </mxGeometry>
        </mxCell>
        <mxCell id="ny_3pKRx650wduWJXIqb-76" value="Переда повідомлення про дублювання" style="text;html=1;align=center;verticalAlign=middle;whiteSpace=wrap;rounded=0;" vertex="1" parent="1">
          <mxGeometry x="260" y="1440" width="180" height="30" as="geometry" />
        </mxCell>
        <mxCell id="ny_3pKRx650wduWJXIqb-77" value="" style="endArrow=classic;html=1;rounded=0;dashed=1;" edge="1" parent="1">
          <mxGeometry width="50" height="50" relative="1" as="geometry">
            <mxPoint x="248.75" y="1520" as="sourcePoint" />
            <mxPoint x="41.25" y="1520" as="targetPoint" />
          </mxGeometry>
        </mxCell>
        <mxCell id="ny_3pKRx650wduWJXIqb-78" value="Показ повідомлення &quot;Експонат з такою назвою вже існує&quot;" style="text;html=1;align=center;verticalAlign=middle;whiteSpace=wrap;rounded=0;" vertex="1" parent="1">
          <mxGeometry x="50" y="1480" width="190" height="30" as="geometry" />
        </mxCell>
        <mxCell id="ny_3pKRx650wduWJXIqb-79" value="" style="endArrow=classic;html=1;rounded=0;dashed=1;" edge="1" parent="1">
          <mxGeometry width="50" height="50" relative="1" as="geometry">
            <mxPoint x="448.75" y="1580" as="sourcePoint" />
            <mxPoint x="251.25" y="1580" as="targetPoint" />
          </mxGeometry>
        </mxCell>
        <mxCell id="ny_3pKRx650wduWJXIqb-80" value="Повідомлення про помилку валідації" style="text;html=1;align=center;verticalAlign=middle;whiteSpace=wrap;rounded=0;" vertex="1" parent="1">
          <mxGeometry x="260" y="1540" width="180" height="30" as="geometry" />
        </mxCell>
        <mxCell id="ny_3pKRx650wduWJXIqb-81" value="" style="endArrow=classic;html=1;rounded=0;dashed=1;" edge="1" parent="1">
          <mxGeometry width="50" height="50" relative="1" as="geometry">
            <mxPoint x="248.75" y="1610" as="sourcePoint" />
            <mxPoint x="41.25" y="1610" as="targetPoint" />
          </mxGeometry>
        </mxCell>
        <mxCell id="ny_3pKRx650wduWJXIqb-82" value="Підсвічування полів з помилками" style="text;html=1;align=center;verticalAlign=middle;whiteSpace=wrap;rounded=0;" vertex="1" parent="1">
          <mxGeometry x="50" y="1580" width="190" height="30" as="geometry" />
        </mxCell>
        <mxCell id="ny_3pKRx650wduWJXIqb-83" value="" style="endArrow=classic;html=1;rounded=0;dashed=1;" edge="1" parent="1">
          <mxGeometry width="50" height="50" relative="1" as="geometry">
            <mxPoint x="248.75" y="1660" as="sourcePoint" />
            <mxPoint x="41.25" y="1660" as="targetPoint" />
          </mxGeometry>
        </mxCell>
        <mxCell id="ny_3pKRx650wduWJXIqb-84" value="Показ повідомлення &quot;Будь ласка, заповніть всі обов&#39;язкові поля&quot;" style="text;html=1;align=center;verticalAlign=middle;whiteSpace=wrap;rounded=0;" vertex="1" parent="1">
          <mxGeometry x="50" y="1620" width="190" height="30" as="geometry" />
        </mxCell>
        <mxCell id="ny_3pKRx650wduWJXIqb-85" value="" style="endArrow=classic;html=1;rounded=0;dashed=1;" edge="1" parent="1">
          <mxGeometry width="50" height="50" relative="1" as="geometry">
            <mxPoint x="448.75" y="1753" as="sourcePoint" />
            <mxPoint x="251.25" y="1753" as="targetPoint" />
          </mxGeometry>
        </mxCell>
        <mxCell id="ny_3pKRx650wduWJXIqb-86" value="Повідомлення про невірний формат" style="text;html=1;align=center;verticalAlign=middle;whiteSpace=wrap;rounded=0;" vertex="1" parent="1">
          <mxGeometry x="260" y="1710" width="180" height="30" as="geometry" />
        </mxCell>
        <mxCell id="ny_3pKRx650wduWJXIqb-87" value="" style="endArrow=classic;html=1;rounded=0;dashed=1;" edge="1" parent="1">
          <mxGeometry width="50" height="50" relative="1" as="geometry">
            <mxPoint x="248.75" y="1800" as="sourcePoint" />
            <mxPoint x="41.25" y="1800" as="targetPoint" />
          </mxGeometry>
        </mxCell>
        <mxCell id="ny_3pKRx650wduWJXIqb-88" value="Показ повідомлення &quot;Невірний формат файлу&quot;" style="text;html=1;align=center;verticalAlign=middle;whiteSpace=wrap;rounded=0;" vertex="1" parent="1">
          <mxGeometry x="50" y="1760" width="190" height="30" as="geometry" />
        </mxCell>
        <mxCell id="zobaX-6-hdfJ-gRX5Goj-1" value="Невірний&lt;br&gt;формат&lt;br&gt;фотографії" style="shape=umlFrame;whiteSpace=wrap;html=1;pointerEvents=0;width=60;height=75;" vertex="1" parent="1">
          <mxGeometry x="-20" y="1675" width="820" height="165" as="geometry" />
        </mxCell>
        <mxCell id="zobaX-6-hdfJ-gRX5Goj-2" value="Помика&lt;br&gt;валідації" style="shape=umlFrame;whiteSpace=wrap;html=1;pointerEvents=0;width=60;height=40;" vertex="1" parent="1">
          <mxGeometry x="-20" y="1540" width="820" height="135" as="geometry" />
        </mxCell>
        <mxCell id="zobaX-6-hdfJ-gRX5Goj-3" value="Назва вже існує" style="shape=umlFrame;whiteSpace=wrap;html=1;pointerEvents=0;" vertex="1" parent="1">
          <mxGeometry x="-20" y="1410" width="820" height="130" as="geometry" />
        </mxCell>
        <mxCell id="zobaX-6-hdfJ-gRX5Goj-4" value="Помилка&lt;br&gt;завантаження&lt;br&gt;файлів" style="shape=umlFrame;whiteSpace=wrap;html=1;pointerEvents=0;width=80;height=60;" vertex="1" parent="1">
          <mxGeometry x="-40" y="1290" width="840" height="120" as="geometry" />
        </mxCell>
        <mxCell id="zobaX-6-hdfJ-gRX5Goj-7" value="" style="endArrow=classic;html=1;rounded=0;dashed=1;" edge="1" parent="1">
          <mxGeometry width="50" height="50" relative="1" as="geometry">
            <mxPoint x="248.75" y="1280" as="sourcePoint" />
            <mxPoint x="41.25" y="1280" as="targetPoint" />
          </mxGeometry>
        </mxCell>
        <mxCell id="zobaX-6-hdfJ-gRX5Goj-8" value="Показ повідомлення &quot;Помилка при збереженні Бази Даних&quot;" style="text;html=1;align=center;verticalAlign=middle;whiteSpace=wrap;rounded=0;" vertex="1" parent="1">
          <mxGeometry x="50" y="1240" width="190" height="30" as="geometry" />
        </mxCell>
        <mxCell id="zobaX-6-hdfJ-gRX5Goj-9" value="" style="endArrow=classic;html=1;rounded=0;dashed=1;" edge="1" parent="1">
          <mxGeometry width="50" height="50" relative="1" as="geometry">
            <mxPoint x="448.75" y="1260" as="sourcePoint" />
            <mxPoint x="251.25" y="1260" as="targetPoint" />
          </mxGeometry>
        </mxCell>
        <mxCell id="zobaX-6-hdfJ-gRX5Goj-10" value="Переда повідомлення про помилку" style="text;html=1;align=center;verticalAlign=middle;whiteSpace=wrap;rounded=0;" vertex="1" parent="1">
          <mxGeometry x="260" y="1220" width="180" height="30" as="geometry" />
        </mxCell>
        <mxCell id="zobaX-6-hdfJ-gRX5Goj-11" value="Повідомлення про помилку" style="text;html=1;align=center;verticalAlign=middle;whiteSpace=wrap;rounded=0;" vertex="1" parent="1">
          <mxGeometry x="460" y="1210" width="170" height="30" as="geometry" />
        </mxCell>
        <mxCell id="zobaX-6-hdfJ-gRX5Goj-12" value="" style="endArrow=classic;html=1;rounded=0;dashed=1;" edge="1" parent="1">
          <mxGeometry width="50" height="50" relative="1" as="geometry">
            <mxPoint x="638.75" y="1240" as="sourcePoint" />
            <mxPoint x="451.25" y="1240" as="targetPoint" />
          </mxGeometry>
        </mxCell>
        <mxCell id="zobaX-6-hdfJ-gRX5Goj-13" value="Помилка&lt;br&gt;завантаження&lt;br&gt;файлів" style="shape=umlFrame;whiteSpace=wrap;html=1;pointerEvents=0;width=80;height=60;" vertex="1" parent="1">
          <mxGeometry x="-40" y="1290" width="840" height="120" as="geometry" />
        </mxCell>
        <mxCell id="zobaX-6-hdfJ-gRX5Goj-14" value="Помилка&amp;nbsp;&lt;br&gt;зюереження&amp;nbsp;&lt;br&gt;в БД" style="shape=umlFrame;whiteSpace=wrap;html=1;pointerEvents=0;width=80;height=60;" vertex="1" parent="1">
          <mxGeometry x="-40" y="1190" width="840" height="99" as="geometry" />
        </mxCell>
        <mxCell id="zobaX-6-hdfJ-gRX5Goj-15" value="Успішне&lt;br&gt;збереження&lt;br&gt;в БД" style="shape=umlFrame;whiteSpace=wrap;html=1;pointerEvents=0;width=80;height=50;" vertex="1" parent="1">
          <mxGeometry x="-40" y="940" width="840" height="250" as="geometry" />
        </mxCell>
      </root>
    </mxGraphModel>
  </diagram>
</mxfile>
